<svg width="24.259mm" height="20.331mm" version="1.1" viewBox="0 0 24.259 20.331" xmlns="http://www.w3.org/2000/svg">
 <g transform="translate(-84.661 -87.655)">
  <g transform="translate(-15.875 30.994)">
   <path d="m106.47 76.881-.63536.10112-.93086-.3909-.34219-.66174-.3422-.66174.13293-.60526.13294-.60526.60813-.5047v-.54596l1.4727-3.4407-2.7201-9.4099-.35038-1.2385-.35037-1.2385-1.5463.25876-.84714.10034v-1.2707h3.1768l.60414 2.012h19.587l.67.2571v.98612l-1.9393 9.0124-.20118.37589-.20117.37589-14.874.1113-.67622 1.6079-.67623 1.6079 1.308.49968 11.279.0052.55066-.2509.55067-.2509 1.3856.39461.81786 1.5144-.27993.67579-.27992.67579-1.19.61538h-.81106l-1.1003-.8655-.13733-.73207-.13734-.73206h-10.066l-.2382 1.191-.76778.92555z" style="fill:#e8d8e9;stroke-width:.21178"/>
   <path d="m106.15 76.781h-.65461l-.51984-.51984-.51983-.51984v-1.4279l.49016-.46049.49017-.46049h1.4872l.92098.98033v1.3686l-1.0397 1.0397zm13.918 0h-.71396l-.92098-.98033v-1.3772l.20732-.38737.20731-.38737 1.2955-.45162 1.0003.38033.6781.96812v1.1957l-1.0397 1.0397zm-6.8947-2.1179h-4.8213l-.50828-.50828v-.55064h10.589v.23963l-.21923.40965-.21924.40965zm-7.523-1.5199-.34792.06848v-.4643l1.3299-3.1683-2.8688-10.059-.59536-2.012h-1.2293l-.26178.42357h-.83544l-.24588-.64075.26141-.31498.26142-.31498h2.4377l.43402.52946.24066.90009.24065.90009h20.078l.12322.19938.12323.19938-1.9392 9.2375-.19549.47652-.19548.47652h-14.852l-1.252 2.8591-.36412.63536z" style="fill:#ceb1e5;stroke-width:.21178"/>
   <path d="m106.09 76.774-.25477-.0064-.84714-.46335-.26473-.33182-.26473-.33183v-1.209l.51983-.51984.51984-.51984h1.3092l1.0397 1.0397v.84646l-.23514.51608-.23514.51607-.51607.23514-.51608.23514-.25476-.0064zm14.11-.007-.38691-.01343-.92535-.37283-.22563-.42159-.22563-.4216v-1.106l1.0397-1.0397h1.243l.89279.74125.13131.67982.1313.67982-1.2877 1.2877-.38692-.01343zm-7.0355-2.3162h-5.0602l-.1219-.31768-.12191-.31768h10.364v.63536zm-7.4524-1.4166-.40633.10626-.004-.27802.67759-1.646.6776-1.646-2.894-10.05-.29603-1.006-.29604-1.006h-1.2293l-.26178.42357h-.83544l-.24588-.64075.26141-.31498.26142-.31498h2.4377l.43402.52946.24066.90009.24065.90009h19.905l.26882.70054-1.9667 9.3042-.24255.29226-.24256.29226h-14.696l-1.3824 3.3482z" style="fill:#b48be5;stroke-width:.21178"/>
   <path d="m106.09 76.774-.25477-.0064-.84714-.46335-.26473-.33182-.26473-.33183v-1.209l.51983-.51984.51984-.51984h1.3092l1.0397 1.0397v.84646l-.23514.51608-.23514.51607-.51607.23514-.51608.23514zm13.903-.20534h-.67875l-.87789-1.116v-.8226l1.2814-1.2814 1.1542.28803.37063.334.37062.334v1.6046l-.94138.65938zm-6.8976-2.167-4.9883.05672-.12335-.32145-.12336-.32145h10.399l-.0881.26473-.0881.26473zm-7.3834-1.3675-.40633.10626-.004-.27802.67759-1.646.6776-1.646-2.894-10.05-.29603-1.006-.29604-1.006h-1.2293l-.26178.42357h-.83544l-.24588-.64075.26141-.31498.26142-.31498h2.4377l.43402.52946.23159.8664.23158.8664 19.954.25324.11775.11774.11774.11775-2.0353 9.6384-.68038.56857-3.6882-.26475-10.769.29102-.67768 1.6414-.67769 1.6414z" style="fill:#ce9aa0;stroke-width:.21178"/>
   <path d="m106.47 76.653-.42357.11837-.52947-.2663-.52946-.26629-.53384-1.1133.20452-.53793.20452-.53793.53737-.3521.53738-.3521.95612.24008.73554.54786.12831.65375.12831.65375-.99216 1.0938zm13.522-.08414h-.67875l-.87789-1.116v-.8226l1.2814-1.2814 1.1542.28803.37063.334.37062.334v1.6046l-.94138.65938zm-6.8976-2.167-4.9883.05672-.12335-.32145-.12336-.32145h10.399l-.0881.26473-.0881.26473zm-7.3545-1.4333h-.22344v-.28866l1.2858-3.2058-3.5557-11.86-1.3581-.1348-.62894.52198-.36-.36538-.35999-.36538.8222-.60947 1.5074.0058.95064.25478.24868.8757.24869.8757.33182.38205 19.769.12932.11384.11383.11383.11384-2.0381 9.6384-.33984.38232-14.739.10972-.5309.99046-1.0342 2.4355z" style="fill:#bb83ae;stroke-width:.21178"/>
   <path d="m106.15 76.569h-.63536l-.84714-.84714v-1.4168l.7746-.701h1.249l.94138.65937v1.4585l-.84714.84714zm13.84 0h-.67875l-.87789-1.116v-.8226l1.2814-1.2814 1.1542.28803.37063.334.37062.334v1.6046l-.94138.65938zm-6.1275-2.1966-4.2182.02719-1.4825-.27975 2.0711-.3041h8.024l-.0881.26473-.0881.26473zm-8.0833-1.4565-.26473.08801v-.32395l1.2858-3.2058-3.5557-11.86-1.3581-.1348-.62894.52198-.36-.36538-.35999-.36538.8222-.60947 1.5074.0058.95475.25585.28524.98105.28524.98106 4.4048.26578 15.778.0519.001.26473.001.26473-1.9739 9.3186-.37956.42357-14.567-.1398-.24031.38758-.24032.38758-1.1325 2.7184z" style="fill:#8e5afb;stroke-width:.21178"/>
   <path d="m106.15 76.569h-.63536l-.84714-.84714v-1.4168l.7746-.701h1.249l.94138.65937v1.4585l-.84714.84714zm15.354-.63536h-.10589v-.21178h.21178v.21178zm-8.1537-1.5253-3.7062-.01299-1.4825-.2755 2.0711-.3041 6.8239.04914-.84714.21974.84714.33671-3.7062-.013zm-7.5713-1.4924-.26473.08801v-.32395l1.2858-3.2058-3.5557-11.86-1.3581-.1348-.62894.52198-.36-.36538-.35999-.36538.8222-.60947 1.5074.0058.95475.25585.28524.98105.28524.98106 4.4048.26578 15.733.0519-.061 1.0183-.11815-.07293-.11816-.07293-2.7287 4.9459-.25642.42644-.25643.42644-.14755.31768-.14755.31768-.83792 1.4296-.83793 1.4296-4.9287.02898-6.4394-.05542-.23798.38385-.23799.38385-1.1325 2.7184zm14.137-3.3359h-.28238l.28238-.28238.28238.28238zm4.3416-8.2596h-.10589v-.21178h.21178v.21178z" style="fill:#945de7;stroke-width:.21178"/>
   <path d="m106.15 76.569h-.63536l-.84714-.84714v-1.4168l.7746-.701h1.249l.94138.65937v1.4585l-.84714.84714zm5.9954-2.1457-2.501-.02788-1.4825-.2755 2.0711-.3041 4.706.03344-.26605.10726-.26606.10726.11972.1937.11971.1937zm-6.3661-1.5073-.26473.08801v-.32395l1.2858-3.2058-3.5557-11.86-1.3581-.1348-.62894.52198-.36-.36538-.35999-.36538.8222-.60947 1.5074.0058.95475.25585.28524.98105.28524.98106 4.4048.26578 13.84.0519-1.5918 2.8591-2.753 4.8711-.6908 1.2178-.69081 1.2178-2.8187.02898-6.4394-.05542-.23798.38385-.23799.38385-1.1325 2.7184z" style="fill:#d99763;stroke-width:.21178"/>
   <path d="m106.15 76.569h-.63536l-.84714-.84714v-1.4168l.7746-.701h1.249l.94138.65937v1.4585l-.84714.84714zm5.9954-2.1457-2.501-.02788-1.4825-.2755 2.0711-.3041 4.706.03344-.26605.10726-.26606.10726.11972.1937.11971.1937zm-6.3661-1.5073-.26473.08801v-.361l1.2841-3.0563-3.0185-10.49-.22432-.82096-.22431-.82096-2.4763.25882v-.86l2.8591.12524.6699 2.1179 18.25.11036-1.5893 2.8546-2.753 4.8711-.6908 1.2178-.69081 1.2178-2.8187.02898-6.4394-.05542-.23798.38385-.23799.38385-1.1325 2.7184z" style="fill:#9b61d3;stroke-width:.21178"/>
   <path d="m106.15 76.569h-.63536l-.84714-.84714v-1.4168l.7746-.701h1.249l.94138.65937v1.4585l-.84714.84714zm5.2946-2.1606-1.8002-.01298-1.4825-.2755 2.0711-.3041 3.2236.05768-.52946.10344-.52947.10344.84714.34102-1.8002-.013zm-5.6653-1.4924-.26473.08801v-.361l1.2841-3.0563-3.0185-10.49-.22432-.82096-.22431-.82096-2.4763.25882v-.86l2.8591.12524.6698 2.1179 16.697.21918-.42357.09892-1.2261 2.2233-3.9402 6.9889-.5833.79187-7.2603-.06886-.23542.37975-.23543.37975-1.1325 2.7184z" style="fill:#a267c6;stroke-width:.21178"/>
   <path d="m106.15 76.569h-.63536l-.84714-.84714v-1.4168l.7746-.701h1.249l.94138.65937v1.4585l-.84714.84714zm3.8121-2.1606-.31767-.01298-1.4825-.28056 2.4282-.32859.50873.31441-.40952.16037-.40951.16036zm-4.224-1.4397h-.22344v-.3257l1.2841-3.0563-3.0185-10.49-.22432-.82096-.22431-.82096-2.4763.25882v-.86l2.8591.12524.33493 1.0589.33494 1.0589 14.896.11132-.006.31226-1.1005 1.9061-1.5954 2.965-2.75 4.8711-6.2878.21178-.54612 1.0589-1.0342 2.4355h-.22344z" style="fill:#a566b7;stroke-width:.21178"/>
   <path d="m106.15 76.569h-.63536l-.84714-.84714v-1.4168l.7746-.701h1.249l.94138.65937v1.4585l-.84714.84714zm2.7532-2.3788h-.74125l.37062-.09685.37063-.09685.74125.1937zm-3.1238-1.2743-.26473.08801v-.361l1.2841-3.0563-3.0185-10.49-.22432-.82096-.22431-.82096-2.4763.25882v-.86l2.8591.12524.33486 1.0589.33487 1.0589 13.407.21178-1.8859 3.3083-.93048 1.7344-.93049 1.7344-1.8585 3.2735-4.5498.0092-.22972.37062-.22973.37062-1.1325 2.7184z" style="fill:#ab69a7;stroke-width:.21178"/>
   <path d="m105.93 76.569h-.41465l-.84714-.84714v-1.4168l.7746-.701h1.1593l.8193.43847v.68913l-1.0768 1.8374zm-.19121-3.6004h-.22344v-.3257l1.2841-3.0563-3.0185-10.49-.22432-.82096-.22431-.82096-2.4763.25882v-.86l2.8591.12524.6698 2.1179 11.508.1127v.22536l-1.0374 1.9488-1.0374 1.9488-1.6642 2.965-1.6642 2.965-2.9486.21178-.5447 1.0589-1.0342 2.4355z" style="fill:#b16d95;stroke-width:.21178"/>
   <path d="m104.82 75.719-.15884.0031v-1.4169l.7746-.701h.70777l-.58234 1.0559-.58235 1.0559-.15884.0031zm.95303-2.8029-.26473.08801v-.361l1.2841-3.0563-3.0185-10.49-.22432-.82096-.22431-.82096-2.4763.25882v-.86l2.8591.12524.66974 2.1179 9.8136.1137v.16328l-1.5515 2.688-3.0498 5.5064-1.011 1.7967-.94945.0034-.22972.37062-.22973.37062-1.1325 2.7184z" style="fill:#b77185;stroke-width:.21178"/>
   <path d="m106.96 69.365-.13618.0031-.2952-.74125-1.3775-4.7652-1.3775-4.7652-.44876-1.6419-2.4763.25882v-.86l2.8591.12524.33482 1.0589.33483 1.0589 8.145.11512-.12.37808-.12.37808-5.1861 9.3941-.13618.0031z" style="fill:#bc7377;stroke-width:.21178"/>
   <path d="m106.45 67.462h-.10151l-.2092-.47652-.20921-.47652-2.1613-7.4125-.44128-1.6419-2.4763.25882v-.86l2.8591.12524.66916 2.1179 6.5315.21178-.0704.31768-.0705.31768-3.2075 5.7182-1.0111 1.8002z" style="fill:#c27667;stroke-width:.21178"/>
   <path d="m106.02 64.801-.2823.4098-.29534-.72748-.29533-.72748-1.8487-6.2977-2.4428.25532v-.86l2.8591.12524.33458 1.0589.33457 1.0589 4.5196.12022v.39341l-2.601 4.781z" style="fill:#c97a52;stroke-width:.21178"/>
   <path d="m105.08 62.461-.17873.18752-1.6157-5.1833-2.4355.24834v-.86l2.8591.12524.66734 2.1179 1.4505.11434.49165.1095.49164.1095-1.5515 2.8434z" style="fill:#d17e3c;stroke-width:.21178"/>
   <path d="m104.26 59.626h-.21735l-.75866-2.164-2.4355.2514v-.86l2.842.12524.26844.92975.26845.92975.12502.39391.12502.39391z" style="fill:#dc8726;stroke-width:.21178"/>
  </g>
 </g>
</svg>
